<svg xmlns="http://www.w3.org/2000/svg" fill-rule="evenodd" stroke-linejoin="round" stroke-miterlimit="2" width="24" height="24" clip-rule="evenodd" viewBox="0 0 64 64" id="robot">
  <g>
    <rect width="64" height="64" fill="none"></rect>
    <path d="M616.2,275.5L616.2,261.5C616.2,258.602 613.243,256.25 609.6,256.25C609.6,256.25 574.4,256.25 574.4,256.25C570.757,256.25 567.8,258.602 567.8,261.5C567.8,261.5 567.8,282.5 567.8,282.5C567.8,285.398 570.757,287.75 574.4,287.75L609.6,287.75C613.243,287.75 616.2,285.398 616.2,282.5C616.2,281.534 615.214,280.75 614,280.75C612.786,280.75 611.8,281.534 611.8,282.5C611.8,283.466 610.814,284.25 609.6,284.25C609.6,284.25 574.4,284.25 574.4,284.25C573.186,284.25 572.2,283.466 572.2,282.5L572.2,261.5C572.2,260.534 573.186,259.75 574.4,259.75L609.6,259.75C610.814,259.75 611.8,260.534 611.8,261.5C611.8,261.5 611.8,275.5 611.8,275.5C611.8,276.466 612.786,277.25 614,277.25C615.214,277.25 616.2,276.466 616.2,275.5Z" transform="matrix(.9091 0 0 1.14286 -506.182 -270.857)"></path>
    <path d="M591,243.5C586.861,243.5 583.5,246.861 583.5,251C583.5,255.139 586.861,258.5 591,258.5C595.139,258.5 598.5,255.139 598.5,251C598.5,246.861 595.139,243.5 591,243.5ZM591,248.5C592.38,248.5 593.5,249.62 593.5,251C593.5,252.38 592.38,253.5 591,253.5C589.62,253.5 588.5,252.38 588.5,251C588.5,249.62 589.62,248.5 591,248.5Z" transform="matrix(.8 0 0 .8 -440.8 -188.8)"></path>
    <path d="M591,243.5C586.861,243.5 583.5,246.861 583.5,251C583.5,255.139 586.861,258.5 591,258.5C595.139,258.5 598.5,255.139 598.5,251C598.5,246.861 595.139,243.5 591,243.5ZM591,248.5C592.38,248.5 593.5,249.62 593.5,251C593.5,252.38 592.38,253.5 591,253.5C589.62,253.5 588.5,252.38 588.5,251C588.5,249.62 589.62,248.5 591,248.5Z" transform="matrix(.8 0 0 .8 -448.8 -164.8)"></path>
    <path d="M591,243.5C586.861,243.5 583.5,246.861 583.5,251C583.5,255.139 586.861,258.5 591,258.5C595.139,258.5 598.5,255.139 598.5,251C598.5,246.861 595.139,243.5 591,243.5ZM591,248.5C592.38,248.5 593.5,249.62 593.5,251C593.5,252.38 592.38,253.5 591,253.5C589.62,253.5 588.5,252.38 588.5,251C588.5,249.62 589.62,248.5 591,248.5Z" transform="matrix(.8 0 0 .8 -432.8 -164.8)"></path>
    <path d="M590,256L590,266C590,267.38 590.896,268.5 592,268.5C593.104,268.5 594,267.38 594,266L594,256C594,254.62 593.104,253.5 592,253.5C590.896,253.5 590,254.62 590,256Z" transform="matrix(1 0 0 .8 -560 -188.8)"></path>
    <path d="M619.333,274C619.333,272.895 618.736,272 618,272L614,272C613.264,272 612.667,272.895 612.667,274L612.667,282C612.667,283.105 613.264,284 614,284L618,284C618.736,284 619.333,283.105 619.333,282L619.333,274ZM615.333,276L615.333,280L616.667,280L616.667,276L615.333,276Z" transform="matrix(1.5 0 0 1 -869 -240)"></path>
    <path d="M619.333,274C619.333,272.895 618.736,272 618,272L614,272C613.264,272 612.667,272.895 612.667,274L612.667,282C612.667,283.105 613.264,284 614,284L618,284C618.736,284 619.333,283.105 619.333,282L619.333,274ZM615.333,276L615.333,280L616.667,280L616.667,276L615.333,276Z" transform="matrix(1.5 0 0 1 -915 -240)"></path>
    <path d="M590,290L594,290C594.552,290 595,289.104 595,288C595,286.896 594.552,286 594,286L590,286C589.448,286 589,286.896 589,288C589,289.104 589.448,290 590,290Z" transform="matrix(2 0 0 1 -1152 -240)"></path>
  </g>
</svg>
